<svg width="102" height="79" viewBox="0 0 102 79" fill="none" xmlns="http://www.w3.org/2000/svg">
<path d="M10.496 53.048C9.52047 53.048 8.5449 53.048 7.79845 52.3163C3.00376 47.6166 1.64203 30.4918 1.01012 16.2573C0.839568 12.4153 2.8467 8.97015 5.3041 5.76999C6.37515 4.37522 7.76149 4.03319 9.12138 4.26969C12.1484 4.79612 13.9401 8.9258 19.217 18.8921C20.3759 21.0809 22.2915 21.017 23.899 20.6548C32.1891 18.7871 35.1291 9.21404 35.9864 6.13952C36.3889 4.69602 37.5754 3.79668 39.1755 4.0258C47.2714 5.18503 50.1395 13.1089 53.3471 17.196C58.23 23.4178 63.9453 5.03832 67.6332 1.32081C68.5213 0.425562 70.3308 1.54992 71.8163 2.89872C79.2357 9.63527 77.2484 19.2875 79.3363 20.5218C80.3193 21.1029 81.668 20.2927 82.784 19.3097C87.5601 15.103 88.5709 8.48236 92.7614 5.01614C93.7331 4.21238 95.459 5.24525 96.9445 6.95989C100.545 11.1159 101.401 20.47 100.669 30.8022C99.7156 44.2715 90.3299 49.5744 85.8992 53.6503C81.5528 57.6487 69.9465 61.8725 55.786 64.7474C34.3757 69.0943 17.1698 62.4341 13.844 57.8852C12.7132 55.7752 12.7132 54.0679 12.2255 52.4568C11.7377 50.8456 10.7621 49.3822 9.75697 47.1355" stroke="black" stroke-width="2" stroke-linecap="round"/>
<path d="M36.2974 34.9736H42.7016" stroke="black" stroke-width="2" stroke-linecap="round"/>
<path d="M51.3661 34.9736H58.5237" stroke="black" stroke-width="2" stroke-linecap="round"/>
<path d="M41.5716 41.7542C43.0709 44.2631 47.3203 45.7624 50.9782 46.5253C52.4813 46.4028 53.9957 45.5289 55.188 44.0879C55.6344 43.3929 55.7587 42.7713 56.6402 40.624" stroke="black" stroke-width="2" stroke-linecap="round"/>
<path d="M33.2838 65.8643C33.0352 66.1129 32.9071 66.9869 32.472 69.2359C32.0369 70.739 31.1667 72.9766 30.6562 74.5024C30.1458 76.0281 30.0215 76.774 29.14 77.9192" stroke="black" stroke-width="2" stroke-linecap="round"/>
<path d="M58.5236 63.9805C60.0154 65.7209 61.1568 67.3634 61.9706 68.8043C62.9086 70.1209 63.7939 71.3829 64.6697 72.449C65.1726 72.8936 65.7942 73.1422 67.9415 73.7751" stroke="black" stroke-width="2" stroke-linecap="round"/>
</svg>
